<svg id="Plant" xmlns="http://www.w3.org/2000/svg" width="122.519" height="250.444" viewBox="0 0 122.519 250.444">
  <path id="Fill_19" data-name="Fill 19" d="M8.953,32.194c16.816,28.211,36.4,55.528,48.164,86.373-.474-3.636-.977-7.268-1.539-10.894C52.593,88.447,48.884,69.362,44.986,50.3,43,40.595,40.9,30.925,38.749,21.256c-1.158-5.193-2.3-10.39-3.484-15.578C34.979,4.42,34.733,2.225,34.374,0,45.805,37.51,56.828,75.047,64.891,113.459q1.587,7.562,2.7,15.1c.252-1.146.5-2.292.772-3.435a221.98,221.98,0,0,1,13.983-40.1,121.575,121.575,0,0,1,9.752-17.7c2.349-3.48,7.889-7.617,10.032-11.181-11.72,21.5-15.952,48.393-22.719,71.763-1.652,5.7-3.314,11.4-4.942,17.1,10.205-20.466,26.039-37.282,48.054-44.569-26.648,17.607-42.631,48.441-53.4,79.977-.035.374-.078.748-.114,1.123,3.169-6.015,7.162-11.456,12.573-15.267,11.581-8.158,24.428-5.781,35.662,1.216-8.817-5.6-24.751-.5-32.169,5.2-5.311,4.078-9.849,9.548-13.791,14.885-.944,1.279-2.233,2.772-3.594,4.365a196.756,196.756,0,0,1-9.421,36.9c.727-3.5.2-9.106.4-11.717.022-.283.04-.566.061-.848q-1,4.008-1.938,7.914A108.3,108.3,0,0,0,59.223,208.8q.2-3.372.406-6.745-.066-6.4-.517-12.84c-1.054-4.17-2.234-8.1-3.207-11.374a147.018,147.018,0,0,0-15-33.657,132.871,132.871,0,0,0-20.69-26.23c-4.307-4.25-8.814-8.3-13.257-12.4C5.356,104.072,2.484,100.424,0,98.523c18.09,9.973,36.71,20.763,49.906,36.832q-2.321-8.912-5.005-17.538C35.883,88.7,24.5,58.514,8.953,32.194Z" fill="#dde3e9"/>
  <path id="Base" d="M0,0C0,32.34,2.561,58.557,36.936,58.557S73.872,32.34,73.872,0" transform="translate(27.026 191.887)" fill="#c5cfd6"/>
</svg>
