<svg id="Component_25_1" data-name="Component 25 – 1" xmlns="http://www.w3.org/2000/svg" width="122.519" height="214.235" viewBox="0 0 122.519 214.235">
  <g id="Big_Leaf_Plant" data-name="Big Leaf Plant">
    <g id="Big_Ass_Leaf" data-name="Big Ass Leaf" transform="translate(20.894 0)">
      <path id="leaf" d="M21.793.157a15.077,15.077,0,0,1,7.714.819c5.089,2.179,6.536,8.242,6.466,13.17-.075,5.3-1.192,11.1,2.807,15.371,1.838,1.965,4.125,3.468,5.93,5.469A25.883,25.883,0,0,1,49.272,42.2c2.057,4.826,3.067,10.5,1.186,15.563-1.656,4.457-5.824,8.48-4.923,13.548.939,5.287,6.225,9.329,9.529,13.266,3.74,4.456,7.183,10.152,7.749,16,.542,5.6-1.875,11.265-5.585,15.5-7.413,8.46-18.555,12.607-29.79,12.581-4.77-.011-10.171-.228-14.287-2.813a7.914,7.914,0,0,1-2.7-2.942,9.551,9.551,0,0,0-2.611-2.635,15.618,15.618,0,0,1-4.973-6.7c-4.077-10.177-.818-22.767,4.888-31.8,1.352-2.141,2.459-4.2,1.8-6.753-.686-2.664-2.37-5.067-3.861-7.357a59.252,59.252,0,0,1-4.3-6.869A15.7,15.7,0,0,1,.06,52.727a27.52,27.52,0,0,1,5.85-14.371c3.076-4.082,6.688-7.988,6.7-13.337.009-5.669-3.749-10.712-2.148-16.476A10.989,10.989,0,0,1,14.6,2.276C16.656.9,19.373.455,21.793.157Z" transform="translate(0 0)" fill="#dde3e9"/>
      <path id="middle_thing" data-name="middle thing" d="M1.245,1.066A1.3,1.3,0,0,1,2.894.046c.928.262.91,1.136.886,1.915a25.946,25.946,0,0,0,.839,7.045C5.806,13.838,8,18.289,9.735,22.929a25.54,25.54,0,0,1,1.532,14.33c-.96,4.626-2.468,9.132-3.45,13.763C6.952,55.1,6.03,59.408,7.349,63.48c1.269,3.919,4.074,7.111,6.093,10.653A50.557,50.557,0,0,1,19.727,97.97a44.94,44.94,0,0,1-.883,11.622c-.515,2.2-1.206,5.162-3.072,6.677-.86.7-2.331.941-3.055-.094-.68-.971-.083-2.473.132-3.508a53.618,53.618,0,0,0,.9-13.6,49.5,49.5,0,0,0-2.107-13.01,44.167,44.167,0,0,0-5.5-10.826C3.82,71.747,1.4,68.259.443,64.135c-.976-4.189-.183-8.45.877-12.559,1.121-4.346,2.59-8.567,4.108-12.795a22.628,22.628,0,0,0,1.187-12.33C5,17.933.683,9.937,1.245,1.066Z" transform="translate(18.866 8.154)" fill="#c5cfd6"/>
    </g>
    <g id="Big_Ass_Leaf-2" data-name="Big Ass Leaf" transform="translate(28.828 9.736)">
      <path id="leaf-2" data-name="leaf" d="M81.883,1.424a19.367,19.367,0,0,1,8.642,4.982c4.84,5.211,3.355,13.087.683,18.84-2.876,6.192-7.235,12.415-4.778,19.519,1.129,3.266,3.028,6.224,4.1,9.515a33.148,33.148,0,0,1,1.576,10.849c-.117,6.741-1.911,13.933-6.785,18.9C81.03,88.4,74.014,90.954,72.409,97.377c-1.674,6.7,2.418,14.2,4.235,20.55,2.056,7.184,3.113,15.669.706,22.828-2.306,6.862-8.126,12.256-14.715,15.3-13.165,6.075-28.449,5.14-41.65-.745-5.6-2.5-11.842-5.568-15.325-10.75a10.129,10.129,0,0,1-1.629-4.862,12.223,12.223,0,0,0-1.686-4.456A20,20,0,0,1,.018,124.779c.554-14.079,11-27.171,22.465-34.813,2.716-1.81,5.1-3.654,5.669-6.994.594-3.487-.125-7.187-.674-10.654-.542-3.426-1.385-6.838-1.453-10.312a20.183,20.183,0,0,1,2.666-10.154c3.241-5.982,8.45-10.519,14.433-13.833,5.764-3.192,12.065-5.9,14.885-12.178C61,19.186,59.23,11.3,64.143,5.367a14.21,14.21,0,0,1,8.163-5.2C75.447-.376,78.879.513,81.883,1.424Z" transform="translate(0 0)" fill="#dde3e9"/>
      <path id="middle_thing-2" data-name="middle thing" d="M46.531.73A1.657,1.657,0,0,1,49,.4c.952.795.476,1.814.041,2.718a33.469,33.469,0,0,0-2.685,8.728C45.227,18.147,45.48,24.534,45.1,30.9s-1.917,12.424-5.666,17.66C35.9,53.5,31.786,58.01,28.222,62.942c-3.141,4.347-6.463,8.927-7.037,14.409-.553,5.276,1.073,10.5,1.6,15.73,1.084,10.82-.977,21.362-5.045,31.338a57.831,57.831,0,0,1-7.087,13.207c-1.747,2.312-4.1,5.438-7.079,6.242-1.372.371-3.223-.118-3.533-1.715-.291-1.5,1.19-2.953,1.982-4.057a69.008,69.008,0,0,0,8.138-15.53,63.875,63.875,0,0,0,4.3-16.41,57.134,57.134,0,0,0-.806-15.62c-.913-5.315-1.931-10.686-.909-16.041,1.037-5.439,4.186-10.036,7.569-14.312,3.578-4.523,7.5-8.717,11.48-12.893a29.111,29.111,0,0,0,7.813-13.88C42.152,22.542,41.252,10.869,46.531.73Z" transform="translate(28.828 11.699)" fill="#c5cfd6"/>
    </g>
    <g id="Big_Ass_Leaf-3" data-name="Big Ass Leaf" transform="translate(0 49.374)">
      <path id="leaf-3" data-name="leaf" d="M12.1,0A17.363,17.363,0,0,1,25.427,6.809c3.8,4.676,4.57,10.386,6.114,15.958a14.218,14.218,0,0,0,4.405,7.41c2.106,1.714,4.78,2.056,7.3,2.894A16.956,16.956,0,0,1,53.96,43.692c1.96,6-.116,12.048.241,18.127.328,5.583,5.886,9.066,10.358,11.743,4.41,2.639,8.382,5.11,9.71,10.251,1.408,5.453,1.881,11.539-.07,16.926-3.248,8.969-12.752,12.918-21.936,13.531-8.335.556-18.815-.317-25.074-6.309-3.745-3.586-5.1-8.6-4.934-13.589A41,41,0,0,1,23.783,85.2a41.058,41.058,0,0,0,1.556-6.437c.582-5.842-4.87-6.964-9.51-8.568A22.563,22.563,0,0,1,2.933,58.94c-2.673-4.994-3.8-10.6-2.192-16.1a18.75,18.75,0,0,1,4.316-7.522c.886-.954,2.135-1.749,2.935-2.751a3.681,3.681,0,0,0,.327-3.244c-1.19-5.062-4.9-9.254-6.223-14.307C.9,10.455,1.607,4.778,5.817,1.836A11.074,11.074,0,0,1,12.1,0Z" transform="translate(0 0)" fill="#c5cfd6"/>
      <path id="middle_thing-3" data-name="middle thing" d="M3.036.578c5.683,6,7.227,14.129,7.681,22.013.254,4.421-.01,9.084,1.3,13.372,1.122,3.67,3.753,6.476,6.464,9.127,5.458,5.338,11.545,10.764,13.142,18.489.937,4.533.3,9.216,1.6,13.7A37.538,37.538,0,0,0,38.992,88.8c2.029,2.771,4.673,4.893,6.892,7.476.677.789,1.646,1.949,1.367,3.063-.327,1.3-2,1.716-3.193,1.512-2.774-.477-5.109-3.1-6.922-5.007A43.152,43.152,0,0,1,30.4,86.689,38.24,38.24,0,0,1,26.028,74.8c-.726-4.349-.365-8.881-2.022-13.054C21.216,54.719,14.45,50.575,9.558,45.1,3.464,38.282,4.373,29.793,5,21.4c.343-4.61.684-9.817-1.668-14.026C2.431,5.771.429,4.273.042,2.446-.311.773,1.619-.918,3.036.578Z" transform="translate(16.373 12.612)" fill="#afb9c5"/>
    </g>
    <path id="Base" d="M0,0C0,34.286,5.6,52.251,35.134,52.251S70.268,34.286,70.268,0Z" transform="translate(25.225 161.984)" fill="#89c5cc"/>
  </g>
</svg>
