<svg xmlns="http://www.w3.org/2000/svg" width="112.61" height="177.473" viewBox="0 0 112.61 177.473">
  <g id="Corner_Plants" data-name="Corner Plants" transform="translate(112.61 177.473) rotate(180)">
    <path id="Fill_16" data-name="Fill 16" d="M82.523,0c2.551,0,5.094.051,7.641.184,1.942.1,4.91-.3,6.553.91,1.707,1.258,1.59,3.832,1.323,5.65-1.41,9.614-4.851,18.139-12.05,24.95C74.907,42.182,62.2,47.511,47.164,49.884c-10.562,1.667-20.312-.648-28.087-8.161a117.257,117.257,0,0,0-12.153,34A81.481,81.481,0,0,0,5.719,93.2c.121,3.791.33,7.573.736,11.346.176,1.64,1.012,4.121.37,5.671a2.586,2.586,0,0,1-4.432.444c-.949-1.291-.774-3.827-.969-5.355C1.1,102.762.8,100.222.587,97.672c-.348-4.128-.6-8.267-.586-12.41C.044,75.952,2.114,66.607,4.944,57.77c5.43-16.953,14.24-32.02,27.941-43.842C41.31,6.658,50.952,3.715,61.891,2.134,68.7,1.151,75.624,0,82.523,0" transform="translate(105.403 154.05) rotate(180)" fill="#89c5cc"/>
    <path id="Twisted_Leaf" data-name="Twisted Leaf" d="M3.4,1.2A6.679,6.679,0,0,1,5.552.624,34.881,34.881,0,0,1,12.275,0,124.059,124.059,0,0,1,33.064,1.868c4.327.747,9.558,3.263,13.863,1.9C54.427,1.385,62.006,1.5,69.121,4.9c6.5,3.107,11.443,9.009,14.325,15.386a39.1,39.1,0,0,1,2.7,6.894c.213.488.418.98.6,1.479.525,1.417,1,2.859,1.433,4.3.187.616.657,1.977.1,2.24a40.954,40.954,0,0,1,2.34,5.092c1.914,5.091,4.007,10.676,4.68,16.073a25.146,25.146,0,0,1,.027,6.01c-.114.989-.067,2.979-.738,3.732-1.424,1.6-2.155-.638-1.994-1.7,1.226-8.114-1.141-15.733-3.946-23.36a48,48,0,0,0-8.132-13.53,34.149,34.149,0,0,0-9.3-8.105,145.467,145.467,0,0,0-14.169-7.024c-3.155-1.431-6.315-2.823-9.558-4.056a9.527,9.527,0,0,0-2.656-.98c-1.691-.006-4.088,1.242-5.721,1.706-5.373,1.528-10.815,3.483-16.367,4.263a21.107,21.107,0,0,1-10.23-1.25,9.574,9.574,0,0,1-1.61-.877A23.365,23.365,0,0,1,4.051,7.316,27.318,27.318,0,0,1,.841,3.858,1.811,1.811,0,0,1,.417,2.719C.2,2.6.051,2.47.018,2.313-.224,1.154,1.986,1.133,3.4,1.2" transform="translate(112.61 177.473) rotate(180)" fill="#89c5cc"/>
    <path id="Fill_18" data-name="Fill 18" d="M41.112,0C68.545,0,87.021,22.379,95.757,45.638c3.293,8.767,4.065,18.394,5.334,27.6.407,2.954.257,7.456,1.441,10.088.43.954,1.416,1.3.944,2.6a2.091,2.091,0,0,1-1.686,1.426c-1.726.322-4.166-1.581-5.645-2.331-12.271-6.229-20.333-15.86-26.91-27.644-4.077-7.3-8.214-14.886-10.636-22.9A80.028,80.028,0,0,1,55.753,19.33a58.332,58.332,0,0,1-.38-6.063c.012-2,.93-3.054,1.59-4.792-9.154-3.507-19.486-4.463-28.758-.829A37.016,37.016,0,0,0,8.516,25.663,34.641,34.641,0,0,0,6.1,32.3c-.381,1.495-.4,3.435-1.106,4.786C3.28,40.367-.323,38.177.023,35.127c.965-8.508,5.773-17.05,11.92-22.966A42.614,42.614,0,0,1,41.112,0" transform="translate(103.601 87.385) rotate(180)" fill="#89c5cc"/>
  </g>
</svg>
