<svg xmlns="http://www.w3.org/2000/svg" width="200.092" height="329.429" viewBox="0 0 200.092 329.429">
  <g id="Corner_Plants" data-name="Corner Plants" transform="translate(0 0)">
    <path id="Fill_10" data-name="Fill 10" d="M97.7-15.813a53.7,53.7,0,0,1-12.1.709A75.327,75.327,0,0,1,30.1-41.327C18.58-54.908,15.412-71.792,13.137-88.86c-.226-1.695-.322-3.379-.45-5.077-.027-.364-.068-.689-.112-1-.9-.8-1.365-1.726-.835-2.747a113.177,113.177,0,0,1-5.071-13.248C2.457-124.3-1.828-137.934.812-152a195.772,195.772,0,0,0,3.465,23.269c.089.437.186.871.286,1.3.01.046.02.091.03.136a50.733,50.733,0,0,0,2.131,6.819c.009.024.018.048.027.072.115.293.236.584.357.876.249.6.5,1.205.775,1.8q.137.306.264.618c1.264,3.085,1.8,6.561,2.93,9.753q.406,1.089.851,2.168l.053.126c.8,1.935,1.688,3.847,2.624,5.739a7.059,7.059,0,0,1,1.22,2.185,13.643,13.643,0,0,1,1.012,1.949q.827,1.594,1.657,3.187l-.05-.019q.834,1.528,1.667,3.043l.367.667.6,1.062c1.855,3.305,3.821,6.545,5.864,9.744.729,1.142,2.47,2.779,2.8,4.061.012.048.015.092.023.138A72.882,72.882,0,0,0,45.415-56.853c-.74-.8-2.312-3.5-2.727-4.033-1.272-1.638-2.653-3.162-4.039-4.706a100.255,100.255,0,0,1-7.059-8.633A163.923,163.923,0,0,1,21.044-91.466c-.031-.035-.064-.068-.093-.1-1.614-1.981-2.63-4.976-3.792-7.243,4.6,2.121,9.682,3.5,14.4,5.386A118.551,118.551,0,0,1,45.265-87,153.006,153.006,0,0,1,62.783-75.886c6.36,3.929,11.705,9.337,16.423,15.013,5.582,6.715,10.7,13.489,13.861,21.642a64.782,64.782,0,0,1,3.5,12.411c.032.184.072.384.116.592a40.571,40.571,0,0,1,1.961,4.479c.884,2.422,2.97,5.086-.943,5.937" transform="translate(61.498 344.496)" fill="#69a1ac"/>
    <path id="Fill_1" data-name="Fill 1" d="M145.454,245.714c-4.483,3.034-10.444,3.829-15.808,3.829-20.952,0-40.646-7.759-57.66-19.319-9.322-6.334-17.662-14.4-25.025-22.8A66.764,66.764,0,0,1,36.24,191.5a54.794,54.794,0,0,1-3.9-12.27,125.856,125.856,0,0,1-2.211-15.66c-.145-2.064-1.347-13.019,2.092-13.2a4.729,4.729,0,0,1,0-.758c-7.467-11.653-12.081-25.31-16.359-38.258A260.177,260.177,0,0,1,6.671,77.06,372.931,372.931,0,0,1,1.089,30.569C.9,27.224.768,23.877.656,20.527Q.513,16.241.37,11.955C.265,8.753-.3,5.066.21,1.883.654-.89,3.059-.47,3.165,2.289c.128,3.332.107,6.67.253,10q.291,6.637.611,13.273A309.8,309.8,0,0,0,21.663,115.6a209.732,209.732,0,0,0,15.313,33.733,235.2,235.2,0,0,0,18.807,27.418c6.548,8.371,13.356,16.549,21.379,23.642A164.408,164.408,0,0,0,98.2,215.829c9.351,5.925,18.683,11.707,28.812,16.256,5.265,2.364,10.629,4.481,15.935,6.749.955.408,1.978.8,2.9,1.277,3.063,1.577,2.055,3.951-.386,5.6" transform="translate(0 33.235) rotate(-13)" fill="#c1dee2"/>
    <path id="Fill_20" data-name="Fill 20" d="M49.924-7.533c8.519,0,16.1-1.109,23.949-4.5A106.41,106.41,0,0,0,92.819-23.051c8.433-5.932,15.075-12.836,19.725-21.984,2.778-5.465,4.815-13.2,2.95-19.159-2.2-7.021-8.231-12.876-16.178-11.639-4.914.764-9.418,4.022-13.153,7.088a49.8,49.8,0,0,0-11,12.978c-4.817,7.991-7.648,17.024-11.74,25.375-1.942,3.963-3.818,7.954-6.144,11.721a18.9,18.9,0,0,1-4.124,5.1c-.934.741-4.875,2.025-3.368,3.69C27.7-10.175,8.125-27.169,3.884-48.2c-.4-1.961-.7-3.937-1.03-5.91-.206-1.246-.123-5.839-1.235-6.635C-.832-62.5.2-57.171.3-56.4q.408,2.976.866,5.946a49.513,49.513,0,0,0,14.421,28.45C24.717-13.227,37.03-7.533,49.924-7.533Z" transform="translate(45.993 173.201)" fill="#89c5cc"/>
  </g>
</svg>
