<svg xmlns="http://www.w3.org/2000/svg" width="221.684" height="164.897" viewBox="0 0 221.684 164.897">
  <g id="Corner_Plants" data-name="Corner Plants" transform="translate(221.684 164.897) rotate(180)">
    <path id="Fill_10" data-name="Fill 10" d="M1.9.619A44.5,44.5,0,0,1,11.934.031a62.43,62.43,0,0,1,46,21.737c9.548,11.258,12.174,25.254,14.06,39.4.187,1.4.267,2.8.373,4.208.023.3.057.572.093.825a1.813,1.813,0,0,1,.692,2.277,93.825,93.825,0,0,1,4.2,10.982c3.491,11.088,7.043,22.388,4.855,34.048a162.307,162.307,0,0,0-2.872-19.289c-.074-.362-.154-.722-.237-1.08-.009-.038-.016-.076-.025-.113a42.06,42.06,0,0,0-1.766-5.653l-.023-.06c-.095-.243-.2-.484-.3-.726-.206-.5-.418-1-.642-1.5q-.114-.254-.219-.512c-1.048-2.557-1.49-5.438-2.428-8.084q-.337-.9-.705-1.8l-.044-.1c-.665-1.6-1.4-3.189-2.175-4.757a5.852,5.852,0,0,1-1.011-1.812,11.31,11.31,0,0,1-.839-1.615q-.686-1.321-1.373-2.642l.041.015q-.691-1.267-1.381-2.523l-.3-.553-.494-.88c-1.537-2.74-3.167-5.425-4.86-8.077-.6-.946-2.047-2.3-2.324-3.366-.01-.04-.012-.076-.019-.114A60.412,60.412,0,0,0,45.239,34.639c.613.66,1.916,2.9,2.26,3.343,1.054,1.358,2.2,2.622,3.347,3.9A83.1,83.1,0,0,1,56.7,49.038a135.886,135.886,0,0,1,8.741,14.293c.025.029.053.056.077.086,1.338,1.643,2.18,4.125,3.143,6-3.811-1.758-8.025-2.9-11.936-4.465a98.255,98.255,0,0,1-11.358-5.325,126.813,126.813,0,0,1-14.519-9.215A57.441,57.441,0,0,1,17.233,37.971C12.606,32.405,8.366,26.79,5.744,20.031a53.706,53.706,0,0,1-2.9-10.288c-.026-.153-.06-.318-.1-.49A33.634,33.634,0,0,1,1.12,5.54C.388,3.533-1.342,1.324,1.9.619" transform="translate(131.44 164.897) rotate(180)" fill="#69a1ac"/>
    <path id="Fill_1" data-name="Fill 1" d="M.274,28.6c-.709,2.338-.118,4.4,2.68,3.815.839-.174,1.7-.452,2.533-.687,4.6-1.3,9.167-2.734,13.795-3.954,8.9-2.346,17.938-3.482,27.06-4.535a136.4,136.4,0,0,1,21.62-1.01c8.877.392,17.538,2.118,26.132,4.1a195.48,195.48,0,0,1,26.449,7.881,174.421,174.421,0,0,1,27.5,13.777,257.727,257.727,0,0,1,58.425,48.886q3.678,4.111,7.332,8.244c1.837,2.075,3.568,4.239,5.393,6.321,1.511,1.724,3.279.742,2.116-1.278-1.335-2.32-3.626-4.4-5.368-6.414q-2.331-2.691-4.665-5.381c-1.824-2.1-3.657-4.193-5.529-6.252a310.245,310.245,0,0,0-27.9-27.079A216.439,216.439,0,0,0,154,47.714c-9.525-6.122-19.636-12.527-30.538-16.151a3.933,3.933,0,0,0-.4-.487c2.119-1.913-4.382-8.352-5.554-9.608a104.7,104.7,0,0,0-9.61-8.949,45.58,45.58,0,0,0-8.924-5.885A55.491,55.491,0,0,0,83.744,1.95,111.883,111.883,0,0,0,55.7.289C38.7,1.7,21.956,6.965,8.457,17.888,5,20.685,1.576,24.306.274,28.6Z" transform="translate(221.684 112.331) rotate(180)" fill="#c1dee2"/>
    <path id="Fill_20" data-name="Fill 20" d="M54.984,0A48.068,48.068,0,0,0,35.119,3.73,88.276,88.276,0,0,0,19.4,12.864C12.41,17.781,6.9,23.5,3.044,31.088.74,35.618-.95,42.028.6,46.97c1.823,5.82,6.827,10.674,13.419,9.648,4.076-.633,7.812-3.334,10.91-5.876a41.288,41.288,0,0,0,9.122-10.758c4-6.624,6.344-14.112,9.738-21.034,1.611-3.285,3.167-6.594,5.1-9.716A15.67,15.67,0,0,1,52.3,5.008c.775-.615,4.043-1.678,2.794-3.058C73.42,2.19,89.654,16.277,93.172,33.713c.328,1.625.584,3.264.854,4.9.171,1.033.1,4.84,1.024,5.5,2.034,1.455,1.179-2.965,1.092-3.6q-.338-2.467-.719-4.929A41.034,41.034,0,0,0,83.461,12C75.892,4.72,65.679,0,54.984,0Z" transform="translate(141.35 65.8) rotate(180)" fill="#89c5cc"/>
  </g>
</svg>
