<svg id="Corner_Plants" data-name="Corner Plants" xmlns="http://www.w3.org/2000/svg" width="309.342" height="257.413" viewBox="0 0 309.342 257.413">
  <path id="Fill_16" data-name="Fill 16" d="M10.564,20.768c5.42-4.4,11.584-7.908,17.555-11.48C37.71,3.552,47.143-.292,58.351.017c18.228.5,34.662,6.658,49.633,16.441,7.8,5.1,15.33,11.08,21.242,18.324,2.631,3.224,5.043,6.622,7.376,10.067,1.442,2.128,2.811,4.3,4.16,6.492.812,1.318,2.55,3.187,2.62,4.8a2.623,2.623,0,0,1-3.762,2.477c-1.482-.8-2.393-3.272-3.29-4.665-2.063-3.206-4.287-6.293-6.586-9.331a81.25,81.25,0,0,0-11.98-12.881A117.053,117.053,0,0,0,86.749,12.93C85.386,23.753,79.188,31.774,69.839,37.2c-13.31,7.727-26.656,11.662-41.986,10.532C17.9,47,9.811,42.534,2.633,35.923,1.275,34.673-.443,32.737.1,30.667c.526-1.993,3.112-3.569,4.573-4.886C6.595,24.054,8.56,22.393,10.564,20.768Z" transform="translate(155.712 206.395) rotate(-30)" fill="#dde3e9"/>
  <path id="Leaf" d="M108.057,239.712c-2.077-16.63-4.277-33.165-8.316-49.47-2.381-9.608-5.434-19.014-8.208-28.512q.372,1.787.658,3.593c-.965-2.833-2.984-5.542-4.145-8.364-1.294-3.148-2.334-6.418-3.322-9.669-1.928-6.345-3.747-12.7-5.918-18.972-2.419-6.988-5.206-13.859-7.8-20.785-2.2-5.878-4.267-12.05-7.137-17.659-1.564-3.057-2.967-6.341-4.5-9.457-.514-1.043-4.922-12.694-4.889-12.694.731,0,3.466,5.178,3.919,5.938,1.325,2.222,2.45,4.534,3.587,6.851a30.527,30.527,0,0,1,2.5-7.978c.379-.781,3.041-6.543,3.906-6.544.432,0-3.571,10.88-4.077,11.835a19.737,19.737,0,0,0-1.448,2.585c-.433,1.333-.21,1,.145,2.2.652,2.2,2.1,4.36,3.005,6.475.5,1.129,1.727,5.043,2.924,6.8,3.08,6.018,5.266,13.358,7.61,19.848a42.511,42.511,0,0,1,2.6-9.27c.288-.713,2.576-7.329,3.234-7.33.74,0-2.1,10.6-2.489,11.511-.716,1.7-1.842,3.346-2.438,5.077-.654,1.9.49,3.608,1.219,5.549,2.679,7.143,5.028,14.357,7.173,21.669,12.5-5.474,15-21.555,15.825-33.412.595-8.546-.722-17.247-2.793-25.535C96.118,72.926,91.463,62.25,86.523,51.971A114.289,114.289,0,0,0,63.294,19.928,122.373,122.373,0,0,0,46.825,6.8,35.013,35.013,0,0,0,37.8,2.162a32.7,32.7,0,0,0-4.556-1.107c-1.172-.2-3.563-1.287-4.536-1.01C20.771,2.245,14.8,5.9,10.169,12.679A59.355,59.355,0,0,0,1.54,34.3,68.674,68.674,0,0,0,.874,59.562,155.738,155.738,0,0,0,5.762,78.547c6.748,22.21,18.59,46.018,39.866,58.185a64.762,64.762,0,0,0,22.378,7.454c1.849.286,3.7.559,5.568.662,1.262.07,5.41-.77,6.323-.228,1.251.743,1.966,4.966,2.51,6.5,4.134,11.635,7.83,23.4,11.183,35.275,3.567,12.632,6.4,25.387,8.753,38.285,1,5.486,1.978,10.963,2.808,16.479.194,1.283-.011,5.32,1.243,6.453a1.516,1.516,0,0,0,2.387-.457c.822-1.527-.511-5.738-.724-7.441" transform="matrix(0.391, -0.921, 0.921, 0.391, 0, 100.378)" fill="#c1dee2"/>
  <path id="Leave_the_Leaf_" data-name="Leave the Leaf!" d="M43.4,55.284a69.968,69.968,0,0,1-11.875-.995,63.8,63.8,0,0,1-11.7-3.183c-3.852-1.458-8.754-3.514-12.494-6.5A16.379,16.379,0,0,1,2.87,39.4a11.393,11.393,0,0,1-1.141-6.855,1.288,1.288,0,0,1-.4.061A1.357,1.357,0,0,1,0,31.7c-.036-.3.2-.529.662-.641,1.129-.271,1.174-.352,1.6-1.128l.128-.233a12.036,12.036,0,0,0,.67-1.538c.141-.37.287-.753.451-1.1a30.712,30.712,0,0,1,2.95-5.123,40.76,40.76,0,0,1,8.952-8.921c7.147-5.242,13.6-8.633,19.714-10.366a68.8,68.8,0,0,1,9.828-2A78.958,78.958,0,0,1,55.111,0,80.079,80.079,0,0,1,70.485,1.471,40.1,40.1,0,0,1,80.37,4.564a23.452,23.452,0,0,1,8.123,6.295,23.182,23.182,0,0,1,4.934,9.754,11.514,11.514,0,0,1,.181,1.333,9.407,9.407,0,0,0,.248,1.6l.048.174c.266.961.266.961,1.023,1.044.212.023.475.052.82.11,1.791.3,3.629.611,5.463.929a134.111,134.111,0,0,1,14.2,3.045,38.444,38.444,0,0,1,4.483,1.607c.172.074.431.175.731.291,1.7.662,4.854,1.893,5.3,3.107a1.33,1.33,0,0,1,.045,1.191.871.871,0,0,1-.763.3,5.665,5.665,0,0,1-2.3-.7c-.8-.453-1.642-.881-2.489-1.274a40.434,40.434,0,0,0-6.61-2.359c-2.423-.65-4.932-1.144-7.358-1.622l-.081-.016c-2.082-.41-4.3-.814-6.986-1.272-1.321-.225-2.674-.449-3.868-.646l-.024,0a3.529,3.529,0,0,1-.343-.084,2.3,2.3,0,0,0-.549-.109.282.282,0,0,0-.221.075.3.3,0,0,0-.053.238,39.151,39.151,0,0,0-6.163-.51c-.76-.023-1.541-.047-2.294-.086-2.909-.152-5.351-.253-7.817-.253-.832,0-1.645.012-2.417.036a71.456,71.456,0,0,0-7.378.571,37.061,37.061,0,0,0-4.245.837c-.171.044-.46.1-.794.164-1.164.225-3.112.6-3.441,1.125.056-.088.414-.132,1.064-.132.528,0,1.173.029,1.677.054l.4.02c.365.019.652.034.786.034h.038c1.743-.066,3.486-.243,5.11-.425a80.173,80.173,0,0,1,8.888-.515l.605,0c-.009.406-1.153,1.04-1.988,1.5-.309.171-.574.318-.718.419a30.658,30.658,0,0,0-3.38,2.727,33.427,33.427,0,0,0-5.391,5.984,6.253,6.253,0,0,1,1.925-1.3c.4-.212.77-.413,1-.572,1.135-.8,2.178-1.6,3.1-2.4.974-.839,1.862-1.737,2.6-2.5.27-.28.572-.658.892-1.059A8.647,8.647,0,0,1,78.577,29.1l.011,0a.614.614,0,0,1,.173.073l.1.05a1.022,1.022,0,0,0,.406.122.3.3,0,0,0,.13-.027,1.982,1.982,0,0,0,.531-.6.94.94,0,0,1,.156-.2,2.942,2.942,0,0,1,1.05-.153,14.406,14.406,0,0,1,1.85.172c.425.058.826.113,1.147.128,2.046.094,4.122.212,6.13.326l.073,0,2.174.122c.107.006.223.008.363.008h.4c.5,0,.932.036,1.16.484.282.553-.085,1.842-.328,2.7-.058.2-.109.381-.143.523a16.919,16.919,0,0,1-3.75,7.37,30.279,30.279,0,0,1-12.779,8.459,119.094,119.094,0,0,1-16.889,4.833A86.559,86.559,0,0,1,43.4,55.284ZM61.409,20.4c-.082,0-.135.018-.156.052a.166.166,0,0,0-.014.137c.2.712,3.829,2.559,6.48,3.907a23.87,23.87,0,0,1,2.62,1.419,18.387,18.387,0,0,0-4.868-3.906A19.7,19.7,0,0,0,61.409,20.4Zm25.616-4.747c-.006.036.362.683.752,1.367l0,.006c.314.551.638,1.12.786,1.4.654,1.254,1.3,2.6,1.973,4.124a25.173,25.173,0,0,0-3.514-6.9Z" transform="translate(122.413 141.689) rotate(-30)" fill="#89c5cc"/>
</svg>
