<svg xmlns="http://www.w3.org/2000/svg" width="367.777" height="499.73" viewBox="0 0 367.777 499.73">
  <g id="Humaaan" transform="translate(-10.844 25.274)">
    <g id="Head" transform="matrix(0.978, -0.208, 0.208, 0.978, 39.559, 7.992)">
      <g id="Head-2" data-name="Head" transform="translate(61.865 36.366)">
        <path id="Head-3" data-name="Head" d="M0,0,9.72,45.175C4.3,51.52.63,59.3,1.243,68.008c1.767,25.1,36.814,19.581,43.631,6.911s6.008-44.81-2.8-47.075c-3.514-.9-11,1.309-18.618,5.888L28.236,0Z" transform="translate(49.412 85.634) rotate(180)" fill="#b28b67"/>
      </g>
      <path id="Hair" d="M44.9,54.314c3.544-15.72,13.64-26.437,12.1-33.463a11.98,11.98,0,0,0-8.219-8.739S45.327-1.818,26.5.262-3.806,10.136,1.156,27.286c4.56,0,10.066-1.645,17.679,1.173,3.623,1.341,5.183,8.317,5.183,8.317h3.44s5.008-8.279,9.876-6.085,2.213,10.66,2.213,10.66l1.695,12.961Z" transform="translate(58.824 28.162)" fill="#191847"/>
    </g>
    <g id="Bottom" transform="translate(22.308 195.406)">
      <path id="Leg" d="M168.182,0l-88,147.038L14.21,271.346H0L110.54,0Z" transform="translate(33.786 0)" fill="#997659"/>
      <path id="Pant" d="M27.4,251.441,0,243.155s18.01-53.81,44.147-118.432S100.287,0,100.287,0h77.4s-33.357,76.026-70.727,138.159S27.4,251.441,27.4,251.441Z" transform="translate(38.915 0)" fill="#db2721"/>
      <path id="Leg-2" data-name="Leg" d="M57.891,0C66.2,51.67,82.215,117.685,83.727,119.722q1.512,2.037,108.847,36.454L189.5,168.7q-128-18.458-134.887-28.641C47.727,129.876,13.325,49.432,0,0Z" transform="translate(149.86 0)" fill="#b28b67"/>
      <path id="Pant-2" data-name="Pant" d="M171.919,145.35l-5.407,20.171Q70.778,173.912,49.2,153.393T0,0H73.8Q91.3,108.806,93.366,113.373T171.919,145.35Z" transform="translate(145.361 0)" fill="#ff4133"/>
      <g id="Left_Shoe" data-name="Left Shoe" transform="translate(309.547 203.934) rotate(-83)">
        <path id="shoe" d="M52.436,5.033a1.961,1.961,0,0,1,2.522,1.348l1.876,6.724A65.3,65.3,0,0,1,55.948,21H.5S-1.66,13.732,3,13.152s7.737-1.047,7.737-1.047L36.5.419a.977.977,0,0,1,1.309.532l1.657,4.088s4.311,2.046,7.006,2.046Z" transform="translate(1.131 19)" fill="#e4e4e4"/>
      </g>
      <g id="Left_Shoe-2" data-name="Left Shoe" transform="translate(-1.468 239.076) rotate(-1)">
        <path id="shoe-2" data-name="shoe" d="M52.436,5.033a1.961,1.961,0,0,1,2.522,1.348l1.876,6.724A65.3,65.3,0,0,1,55.948,21H.5S-1.66,13.732,3,13.152s7.737-1.047,7.737-1.047L36.5.419a.977.977,0,0,1,1.309.532l1.657,4.088s4.311,2.046,7.006,2.046Z" transform="translate(1.131 19)" fill="#e4e4e4"/>
      </g>
    </g>
    <g id="Body" transform="translate(10.844 150.204) rotate(-21)">
      <path id="Skin" d="M1.327,2.347c-1.208.747-2.53,3.56.665,5.758,7.962,5.477,19.435,15.062,20.985,18.217,3.171,6.454,30.915,89.514,30.915,89.514l23.694-.09S38.615,27.762,36.946,23.612c-2.5-6.225,2.795-15.705,5.06-20.8-3.571-1.6-5.23.444-7.047,2.489C33.024,7.483,30.907,9.665,26.1,7.422,19.958,4.553,14.877,0,8.819,0A14.023,14.023,0,0,0,1.327,2.347ZM188.1,125.758l42.722,5.846q12.819,7.153,23.586,9.686c2.02.059,5.233-.678.446-4.682s-9.644-8.433-8.791-10.569,5.3-1.341,6.043-4.628q.738-3.286-21.675-1.068l-34.665-13.788Z" transform="translate(277 196.657) rotate(180)" fill="#997659"/>
      <path id="Clothes_Back" data-name="Clothes Back" d="M-.03,106.6l18.589.382c8.166-40.914,35.24-64.839,89.974-51.149L120.562,3.278C69.271-7.988,21.949,8.87,7.688,64.474,4,78.868.761,93.9-.03,106.6Z" transform="matrix(-0.996, 0.087, -0.087, -0.996, 167.468, 111.625)" fill="#afb9c5"/>
      <path id="Clothes" d="M0,0Q19.32,103.132,81.557,159.577H83.4l.015-.017,28.108-6.458c0-48.5,15.4-79.447,23.3-115.107H58.908C57.838,25.673,57.182,13.007,56.839,0Z" transform="translate(250.772 159.577) rotate(180)" fill="#c5cfd6"/>
      <path id="Shade" d="M15.428,0H0C2.317,26.7,6.4,49.925,12.491,71c-.833-14.065-1.115-26.776-.836-37.783C12.01,19.2,13.28,8.029,15.428,0Z" transform="translate(191.865 121.583) rotate(180)" fill="rgba(0,0,0,0.1)"/>
    </g>
  </g>
</svg>
