<svg xmlns="http://www.w3.org/2000/svg" width="380.378" height="556.133" viewBox="0 0 380.378 556.133">
  <g id="Humaaan" transform="translate(-47.3 -12.867)">
    <g id="Head" transform="matrix(0.848, 0.53, -0.53, 0.848, 273.128, 12.867)">
      <g id="Head-2" data-name="Head" transform="translate(64.324 36.962)">
        <path id="Head-3" data-name="Head" d="M0,87.038,9.842,41.122C4.353,34.674.638,26.77,1.259,17.915,3.048-7.6,38.533-1.988,45.435,10.89S51.518,56.435,42.6,58.737c-3.558.918-11.137-1.33-18.851-5.984l4.842,34.286Z" transform="translate(0 0)" fill="#b28b67"/>
      </g>
      <path id="hair" d="M62.376,64.385c-4.385,0-8.451-2.805-11.449-7.9a36.375,36.375,0,0,1-4.471-17.939c0-.459.009-.93.028-1.4A72.747,72.747,0,0,0,37.478,45a70.6,70.6,0,0,1-9.744,8.392,20.842,20.842,0,0,1-11.7,3.84C11.6,57.23,7.48,54.948,4.425,50.8A23.43,23.43,0,0,1,0,37.173a18.729,18.729,0,0,1,.906-5.9,14.2,14.2,0,0,1,2.846-5.018,13.389,13.389,0,0,1,4.979-3.488,19.2,19.2,0,0,1,7.3-1.307c16.838,0,25.07,2.434,32.251,6.09a23.191,23.191,0,0,1,6.18-9.645,9.583,9.583,0,0,1,2.841-2.018,13.31,13.31,0,0,1,2.376-1.019,59.851,59.851,0,0,1,17.5-2.941c.936-.032,1.874-.049,2.786-.049.347,0,.7,0,1.037.007A11.912,11.912,0,1,1,93.558,23.829,59.861,59.861,0,0,1,80.233,26.1a24.991,24.991,0,0,1,.768,6.4,36.127,36.127,0,0,1-.664,6.651,5.547,5.547,0,0,0-4.1-2.183,7.031,7.031,0,0,0-5.154,2.2,7.281,7.281,0,0,0-1.993,4.959,9.2,9.2,0,0,0,1.841,5.816,6.555,6.555,0,0,0,4.793,2.513,32,32,0,0,1-6.166,8.524C67.133,63.235,64.717,64.385,62.376,64.385Z" transform="translate(8.338 23.846)" fill="#191847"/>
    </g>
    <g id="Bottom" transform="translate(60 286)">
      <path id="Skirt_Shadow" data-name="Skirt Shadow" d="M0,18.631S42.605,30.525,73.517,30.525s57.425-18.317,57.425-18.317S89.249,0,62.269,0,0,18.631,0,18.631Z" transform="translate(115.331 97.286)" fill="#1f28cf"/>
      <path id="Leg" d="M71.356,139.241a6.681,6.681,0,0,1-.689-1.342C66.871,127.877,6.058,19.766,0,0H68.466c4.606,15.028,25.339,109.337,28.257,128.153,9.206,29.68,28.16,125.8,30.58,132.462,2.545,7.005-11.777,14.3-15.594,5.691-6.073-13.7-20.543-51.62-26.985-74.772C78.684,169.829,73.766,150.3,71.356,139.241Z" transform="translate(142.081)" fill="#997659"/>
      <path id="Leg-2" data-name="Leg" d="M145.432,152.44c-27.8,7.014-129.5,19.693-136.477,21.682C1.776,176.168-4.518,161.4,4.355,158.2c14.119-5.091,53.025-16.853,76.614-21.653,18.973-3.861,36.287-7.011,47.91-8.856C127.895,95.1,123.393,16.892,126.344,0h60.58c-2.829,16.2-26.747,134.388-31.192,146.218-1.411,4.224-5.62,6.09-10.3,6.222Z" transform="translate(11.989 0)" fill="#b28b67"/>
      <g id="Left_Shoe" data-name="Left Shoe" transform="matrix(0.174, 0.985, -0.985, 0.174, 46.058, 145.937)">
        <path id="shoe" d="M4.474,5.033A2,2,0,0,0,1.908,6.381L0,13.106A64.242,64.242,0,0,0,.9,21H57.3s2.2-7.268-2.538-7.848-7.87-1.047-7.87-1.047L20.68.419a1,1,0,0,0-1.332.532L17.663,5.039s-4.385,2.046-7.127,2.046Z" transform="translate(1 19)" fill="#e4e4e4"/>
      </g>
      <g id="Right_Shoe" data-name="Right Shoe" transform="translate(246 235)">
        <path id="shoe-2" data-name="shoe" d="M5.3,5.887A2.369,2.369,0,0,0,2.26,7.481L0,15.427a75.782,75.782,0,0,0,1.067,9.329h66.78s2.6-8.589-3.005-9.274-9.318-1.237-9.318-1.237L24.485.435a1.185,1.185,0,0,0-1.577.629l-2,4.831s-5.192,2.418-8.438,2.418Z" transform="translate(1.184 22.514)" fill="#e4e4e4"/>
      </g>
      <path id="Skirt" d="M27.658,5.62s40.043-11.435,75.776,0c8.288,37.743,28.427,52.723,31.968,110.588C95.146,136.173,45.418,101.97,3.978,121.439-7.862,94.206,8.714,28.622,27.658,5.62Z" transform="translate(110.871 -5.62)" fill="#2b44ff"/>
    </g>
    <g id="Body" transform="translate(130.8 95.166) rotate(21)">
      <path id="Skin" d="M1.524,111.98c-1.386-.858-2.9-4.086.764-6.609C11.428,99.084,24.6,88.082,26.379,84.46c3.64-7.407,16.036-79.6,16.036-79.6l25.958.1S44.331,82.809,42.415,87.572c-2.874,7.146,3.209,18.027,5.809,23.876-4.1,1.84-6-.509-8.09-2.858-2.223-2.5-4.652-5.008-10.166-2.435-7.056,3.293-12.89,8.521-19.844,8.52A16.1,16.1,0,0,1,1.524,111.98ZM223.507,41.924,186.916,20.285,198.6,0l35.189,34.433Q249.15,41,258.959,48.944c1.471,1.78,3.072,5.189-3.847,3.664s-14.266-2.818-15.567-.562,2.531,5.716.127,8.671a.908.908,0,0,1-.737.353Q235.624,61.07,223.507,41.924Z" transform="translate(42.436 111.046)" fill="#b28b67"/>
      <path id="Coat_Back" data-name="Coat Back" d="M0,2.78,10.54,0q33.692,66.826,107.5,117.391L87.051,162.7C36.452,113,3.31,60.053,0,2.78Z" transform="matrix(0.996, 0.087, -0.087, 0.996, 158.863, 3.874)" fill="#191847"/>
      <path id="Shirt" d="M0,142.043H95.648S62.409,60.976,62.409,4.312L33.557,0C10.881,36.58,4.478,81.618,0,142.043Z" transform="translate(111.797)" fill="#dde3e9"/>
      <path id="Coat_Front" data-name="Coat Front" d="M0,183.16C10.461,64.786,76.4,0,76.4,0l.022.02L76.433,0h1.884c3.381.117,10.3.421,10.3.421l6.972,19.985c1.107,36.548,12.92,147.311,12.92,147.311H45.9q.16,7.617.721,15.443Z" transform="translate(68.32 0)" fill="#2f3676"/>
      <path id="Shade" d="M17.519,61.674H.077A319.288,319.288,0,0,1,4.8,0,336.038,336.038,0,0,0,9,34.5c2.272,12.346,5.137,21.49,8.514,27.177Z" transform="translate(114.153 106.534)" fill="rgba(0,0,0,0.1)"/>
      <path id="Light" d="M0,14.417,30.917,0V14.417Z" transform="translate(128.083 115.166)" fill="rgba(255,255,255,0.2)"/>
    </g>
  </g>
</svg>
